HIERARCHY
ROOT Hips
{
	OFFSET -3.958830 18.904000 13.208200
	CHANNELS 6 Xposition Yposition Zposition Zrotation Yrotation Xrotation 
	JOINT LHipJoint
	{
		OFFSET 0.000000 0.000000 0.000000
		CHANNELS 3 Zrotation Yrotation Xrotation
		JOINT LeftUpLeg
		{
			OFFSET 1.800000 -1.400000 0.085000
			CHANNELS 3 Zrotation Yrotation Xrotation
			JOINT LeftLeg
			{
				OFFSET 2.215000 -6.000000 0.000000
				CHANNELS 3 Zrotation Yrotation Xrotation
				JOINT LeftFoot
				{
					OFFSET 2.500000 -6.900000 0.000000
					CHANNELS 3 Zrotation Yrotation Xrotation
					JOINT LeftToeBase
					{
						OFFSET 0.200000 -0.500000 1.950000
						CHANNELS 3 Zrotation Yrotation Xrotation
						End Site
						{
							OFFSET 0.000000 0.000000 0.000000
						}
					}
				}
			}
		}
	}
	JOINT RHipJoint
	{
		OFFSET 0.000000 0.000000 0.000000
		CHANNELS 3 Zrotation Yrotation Xrotation
		JOINT RightUpLeg
		{
			OFFSET -1.800000 -1.400000 0.085000
			CHANNELS 3 Zrotation Yrotation Xrotation
			JOINT RightLeg
			{
				OFFSET -2.215000 -6.000000 0.000000
				CHANNELS 3 Zrotation Yrotation Xrotation
				JOINT RightFoot
				{
					OFFSET -2.500000 -6.900000 0.000000
					CHANNELS 3 Zrotation Yrotation Xrotation
					JOINT RightToeBase
					{
						OFFSET -0.200000 -0.500000 1.950000
						CHANNELS 3 Zrotation Yrotation Xrotation
						End Site
						{
							OFFSET 0.000000 0.000000 0.000000
						}
					}
				}
			}
		}
	}
	JOINT LowerBack
	{
		OFFSET 0.000000 0.000000 0.000000
		CHANNELS 3 Zrotation Yrotation Xrotation
		JOINT Spine
		{
			OFFSET -0.087000 1.940000 -0.288900
			CHANNELS 3 Zrotation Yrotation Xrotation
			JOINT Spine1
			{
				OFFSET 0.000000 1.950000 0.060000
				CHANNELS 3 Zrotation Yrotation Xrotation
				JOINT Neck
				{
					OFFSET 0.000000 0.000000 0.000000
					CHANNELS 3 Zrotation Yrotation Xrotation
					JOINT Neck1
					{
						OFFSET 0.000000 1.600000 0.340000
						CHANNELS 3 Zrotation Yrotation Xrotation
						JOINT Head
						{
							OFFSET 0.000000 1.667000 -0.240000
							CHANNELS 3 Zrotation Yrotation Xrotation
							End Site
							{
								OFFSET 0.000000 0.000000 0.000000
							}
						}
					}
				}
				JOINT LeftShoulder
				{
					OFFSET 0.000000 0.000000 0.000000
					CHANNELS 3 Zrotation Yrotation Xrotation
					JOINT LeftArm
					{
						OFFSET 2.700000 1.550000 -0.730000
						CHANNELS 3 Zrotation Yrotation Xrotation
						JOINT LeftForeArm
						{
							OFFSET 5.450000 0.000000 0.000000
							CHANNELS 3 Zrotation Yrotation Xrotation
							JOINT LeftHand
							{
								OFFSET 3.450000 0.000000 0.000000
								CHANNELS 3 Zrotation Yrotation Xrotation
								JOINT LeftHandIndex1
								{
									OFFSET 0.750000 0.000000 0.000000
									CHANNELS 3 Zrotation Yrotation Xrotation
									End Site
									{
										OFFSET 0.000000 0.000000 0.000000
									}
								}
							}
						}
					}
				}
				JOINT RightShoulder
				{
					OFFSET 0.000000 0.000000 0.000000
					CHANNELS 3 Zrotation Yrotation Xrotation
					JOINT RightArm
					{
						OFFSET -2.700000 1.550000 -0.730000
						CHANNELS 3 Zrotation Yrotation Xrotation
						JOINT RightForeArm
						{
							OFFSET -5.450000 0.000000 0.000000
							CHANNELS 3 Zrotation Yrotation Xrotation
							JOINT RightHand
							{
								OFFSET -3.450000 0.000000 0.000000
								CHANNELS 3 Zrotation Yrotation Xrotation
								JOINT RightHandIndex1
								{
									OFFSET -0.750000 0.000000 0.000000
									CHANNELS 3 Zrotation Yrotation Xrotation
									End Site
									{
										OFFSET 0.000000 0.000000 0.000000
									}
								}
							}
						}
					}
				}
			}
		}
	}
}
MOTION
Frames: 8
Frame Time: 0.016667
0.527320 17.147210 -3.482700 -0.354287 1.007595 4.271416 -15.308092 13.493979 2.854457 -0.484430 -2.716414 -13.916478 -8.395156 7.804189 24.003629 -1.105191 6.264854 2.938570 -0.046050 -0.374490 -0.516290 18.307168 -9.963545 2.741618 -2.646630 3.317222 -31.150799 4.132522 -5.543206 22.268728 0.287526 -3.512414 3.616232 0.273240 1.475800 0.088830 -3.467480 -3.460046 -6.508878 10.353502 -7.074525 3.509780 -0.005959 -6.505945 12.946129 -2.120414 -7.083842 -7.310425 -14.269511 9.056671 24.313815 -4.017060 3.330840 -0.078360 -9.368873 4.247570 3.959460 -42.112508 0.961847 -2.405067 -141.868705 -74.761999 120.971156 -4.515459 2.637280 0.435580 0.972470 -0.871990 0.437890 13.746756 -1.233584 2.433359 34.992083 -6.351427 -9.651758 34.552969 48.403102 11.137181 0.994782 -1.728192 -0.954520 0.988370 0.562480 -0.203280 
0.543810 17.015940 -3.524850 -0.043586 1.136212 3.995997 -15.347480 13.432561 2.948699 -0.486039 -3.612546 -15.364850 -8.635698 8.417991 27.419081 -1.010126 6.633767 2.739792 0.039150 -0.288770 -0.404610 18.300360 -9.698230 2.955043 -2.578342 3.996437 -35.644877 2.431815 -6.422866 30.209724 0.078214 -4.295441 3.278721 0.285060 1.332890 0.073640 -3.396850 -3.809899 -6.765687 9.865044 -7.951428 5.741055 0.475503 -7.202979 11.996252 -2.079406 -7.672663 -7.463205 -15.625082 9.438971 24.472396 -4.304880 3.640660 -2.571530 -9.963681 3.582828 3.689086 -40.954845 1.102508 -3.632077 -131.344600 -75.917176 109.479557 -4.449102 2.370934 0.520470 0.860710 -0.764090 0.422480 14.323004 -0.234436 2.682072 33.078190 -6.141909 -9.547745 36.195571 50.706247 12.682911 1.034057 -1.723912 -0.913290 0.965060 0.496710 -0.235770 
0.556590 16.905610 -3.569370 -0.060822 1.026367 2.825025 -15.365884 13.353298 3.033028 -0.020979 -4.472202 -16.360317 -8.748068 9.155520 31.160396 -0.789783 7.060733 2.515386 0.101740 -0.213560 -0.311990 18.307507 -9.404979 3.275773 -2.180827 4.889351 -39.669917 0.088989 -7.090701 38.670863 -0.225556 -5.384094 2.855990 0.241180 1.149680 0.074580 -3.372754 -4.137000 -7.192597 9.649962 -8.805854 9.726913 0.668591 -7.799978 10.394449 -1.645511 -8.215285 -7.862682 -17.091074 10.015491 25.617182 -4.695510 4.441430 -4.859000 -11.279981 2.395448 3.393069 -39.056731 1.420822 -4.817680 -116.873950 -76.783389 93.295043 -4.485014 1.925516 0.589620 0.718120 -0.618630 0.405510 14.911674 1.183254 3.145198 31.858551 -5.793725 -9.762002 37.656359 53.469346 14.399604 1.140445 -1.714446 -0.813560 0.884780 0.415950 -0.242660 
0.574810 16.805640 -3.608140 -0.266621 0.477928 1.379189 -15.369681 13.177935 3.106309 0.801561 -5.292753 -17.046749 -9.506002 10.231968 34.655572 -0.596760 7.680292 2.252222 0.105090 -0.219310 -0.270250 18.336950 -9.081219 3.659681 -2.062701 6.032324 -43.484711 -1.817182 -7.746459 46.843923 -0.547670 -6.658923 2.412649 0.180540 1.038360 0.067360 -3.397602 -4.306555 -7.663363 9.881729 -9.376595 14.200834 0.385740 -8.002235 8.643370 -0.998598 -8.516444 -8.413574 -17.885194 10.294580 26.542947 -5.080660 4.820600 -6.878580 -12.988921 0.760970 3.226019 -36.431760 1.087463 -4.053382 -99.421022 -78.692590 74.680627 -4.771584 1.537687 0.668320 0.618990 -0.530100 0.374960 15.484253 2.902267 3.791854 31.342025 -5.693059 -10.274138 38.463629 56.719366 15.972568 1.206386 -1.666245 -0.772350 0.848730 0.398000 -0.260370 
0.594530 16.715080 -3.645700 -0.756556 -0.191453 -0.243444 -15.372494 12.996305 3.181785 1.941777 -6.076936 -17.471840 -10.519725 11.531816 38.085436 -0.404550 8.414120 1.960993 0.086260 -0.248740 -0.258800 18.366968 -8.764037 3.998831 -2.024896 7.166886 -46.447561 -2.907179 -8.480029 53.717417 -0.857046 -7.810094 2.032966 0.120760 0.949650 0.053040 -3.425678 -4.449237 -8.076749 10.532937 -10.122859 18.603283 -0.289739 -8.292004 7.323721 -0.215324 -8.839971 -9.280949 -18.883262 10.644084 27.793170 -5.268060 4.855020 -9.021450 -14.551639 -1.355712 3.659270 -34.122592 1.139988 -3.816994 -79.022477 -79.600822 55.923254 -4.518567 2.330246 0.757590 0.524440 -0.454970 0.344510 15.585960 5.130739 4.653990 31.761532 -5.423493 -11.169807 39.087017 60.796178 17.715595 1.255451 -1.598763 -0.755970 0.835570 0.405070 -0.276720 
0.613920 16.638180 -3.673390 -1.411315 -1.194727 -1.857666 -15.376830 12.832813 3.224272 3.583454 -6.509381 -17.311390 -12.196615 13.060019 40.310247 -0.176582 9.047787 1.712507 0.128990 -0.209760 -0.198570 18.392207 -8.477396 4.286588 -1.997312 8.357205 -48.637579 -3.511126 -9.141084 59.399881 -1.160918 -8.767531 1.715355 0.085450 0.822000 0.056150 -3.445750 -4.539279 -8.389235 11.227955 -10.760012 22.502228 -0.917857 -8.470939 5.986854 0.513191 -9.001607 -9.990961 -19.651804 10.864764 29.374248 -5.430670 4.797070 -11.202650 -15.868128 -3.770105 3.734617 -32.419990 1.547602 -5.978653 -61.194325 -75.609186 39.313669 -4.077817 2.847721 0.823820 0.411180 -0.354000 0.334010 15.515517 7.513525 5.673177 32.561704 -5.078343 -12.055734 39.697459 64.924578 19.399489 1.336164 -1.583535 -0.694210 0.780740 0.354180 -0.281050 
0.625800 16.576870 -3.694620 -2.031370 -2.270834 -3.146570 -15.380415 12.671944 3.227768 5.135378 -6.650675 -16.975072 -13.766612 14.429015 41.624144 -0.020892 9.548505 1.527117 0.178280 -0.167860 -0.136340 18.421899 -8.218379 4.550555 -1.778592 9.705504 -50.442362 -4.277628 -9.451116 64.328646 -1.424176 -9.582957 1.464599 0.076240 0.729850 0.053860 -3.478395 -4.560163 -8.610293 11.873138 -11.345192 25.645822 -1.548841 -8.626591 4.708105 1.016554 -9.011175 -10.414000 -19.904640 11.230832 30.439926 -5.716290 4.880000 -13.080850 -16.957797 -5.779012 3.782587 -30.779187 1.915060 -7.222136 -50.346275 -70.400595 28.624519 -3.873085 2.906244 0.883790 0.330660 -0.282300 0.333170 15.627929 9.417760 6.296895 33.304385 -3.964669 -12.501016 40.419040 68.461616 21.044231 1.394232 -1.571153 -0.662930 0.749340 0.303980 -0.292210 
0.625180 16.537900 -3.703450 -2.552675 -3.562511 -4.106805 -15.397006 12.589509 3.214936 6.527031 -6.419022 -16.435150 -15.181131 15.564140 42.025297 0.102556 9.861735 1.390615 0.216300 -0.119980 -0.107960 18.427446 -8.002402 4.763567 -1.264700 11.115624 -51.328508 -5.083522 -9.286228 67.750513 -1.620127 -10.103424 1.315956 0.064580 0.642040 0.076880 -3.460336 -4.623845 -8.774014 12.109750 -11.599248 27.985777 -1.754732 -8.634971 3.908671 1.505558 -8.821260 -10.930432 -19.767387 11.694763 31.720820 -6.484750 5.254220 -15.008700 -17.401116 -7.528868 4.151897 -30.275181 2.434823 -7.958326 -43.459879 -65.120088 21.671319 -3.746576 2.912715 0.924180 0.270740 -0.208120 0.332220 15.125041 11.137493 6.765526 34.674071 -2.184793 -12.868383 41.710911 72.407296 23.231959 1.441189 -1.559469 -0.609210 0.699200 0.271540 -0.292450 
